<svg xmlns="http://www.w3.org/2000/svg" viewBox="0 0 575.79 334.03"><defs><style>.cls-1{fill:#47519a;opacity:0.15;}.cls-11,.cls-2{fill:none;}.cls-2,.cls-3{stroke:#1d1d1b;stroke-width:5px;}.cls-11,.cls-2,.cls-3,.cls-4,.cls-5,.cls-6,.cls-7{stroke-miterlimit:10;}.cls-3{fill:#27348b;}.cls-4{fill:#fff;}.cls-11,.cls-4,.cls-5,.cls-6{stroke:#000;}.cls-5{fill:#9b3568;}.cls-7{fill:#312783;stroke:#312783;}.cls-8{fill:#35398e;}.cls-9{fill:#9d3668;}.cls-10{fill:#999;}</style></defs><g id="Camada_3" data-name="Camada 3"><rect class="cls-1" y="18.89" width="558" height="315.14" rx="139.5"/><text x="-153" y="-133.97"/><path class="cls-2" d="M477.11,220.18c-.29-.5-.61-1-.94-1.46l.87,1.51Z" transform="translate(-153 -133.97)"/><path class="cls-2" d="M412.21,193.14c-7.57,4.37-15,11.49-22,21.56-.35.51-.69,1.05-1,1.59C396.66,205.79,404.38,198.06,412.21,193.14Z" transform="translate(-153 -133.97)"/><polyline class="cls-2" points="233.79 86.26 197.03 150.43 197.03 175.84"/><path class="cls-2" d="M262.85,371.07" transform="translate(-153 -133.97)"/><path class="cls-2" d="M153,448.43a135.69,135.69,0,0,0,70.44-19.78h0a304.52,304.52,0,0,0,39.41-28.47" transform="translate(-153 -133.97)"/><path class="cls-2" d="M476.14,218.66l0,.06-1.39-2.43a16.33,16.33,0,0,0-1-1.59c-19.67-26.15-41.22-32.37-61.57-21.56C433.47,180.86,456.15,190.46,476.14,218.66Z" transform="translate(-153 -133.97)"/><path class="cls-2" d="M538.29,326.8q-2.7-4.37-5.27-8.84l-56-97.73" transform="translate(-153 -133.97)"/><path class="cls-2" d="M538.29,326.8a303.73,303.73,0,0,0,102.27,98.56h0A139.12,139.12,0,0,0,711,444.5" transform="translate(-153 -133.97)"/><path class="cls-2" d="M386.89,220.18l.07,0,2.26-3.94C388.87,216.78,387.19,219.66,386.89,220.18Z" transform="translate(-153 -133.97)"/><path class="cls-2" d="M477,220.23l-.87-1.51,0-.06c-20-28.2-42.67-37.8-63.93-25.52-7.83,4.92-15.55,12.65-23,23.15L387,220.23" transform="translate(-153 -133.97)"/><path class="cls-3" d="M262.81,400.61V444H350V284.84l-24.45,42.4A310.22,310.22,0,0,1,262.81,400.61Z" transform="translate(-153 -133.97)"/><rect class="cls-4" x="133.92" y="79.06" width="43.32" height="7.99"/><polygon class="cls-4" points="133.92 236.79 177.96 236.79 177.92 231.82 133.92 231.82 133.92 236.79"/><polygon class="cls-4" points="133.92 256.79 178.1 256.79 178.05 249.54 133.92 249.54 133.92 256.79"/><polygon class="cls-4" points="133.92 225.44 177.87 225.44 177.84 220.47 133.92 220.47 133.92 225.44"/><polygon class="cls-4" points="133.92 191.19 177.62 191.19 177.53 178.44 133.92 178.44 133.92 191.19"/><path class="cls-4" d="M289.74,241h38.33a20.51,20.51,0,0,0,2.1-8H287.09A22,22,0,0,0,289.74,241Z" transform="translate(-153 -133.97)"/><path class="cls-4" d="M286.92,281.46v17.42h43.51l-.12-17.24a18,18,0,0,0-1.75-7.55H288.63A17,17,0,0,0,286.92,281.46Zm37.16-1.11a5.6,5.6,0,0,1,5.77,5.42v1.72a5.6,5.6,0,0,1-5.77,5.41h-30.6a5.6,5.6,0,0,1-5.77-5.41v-1.72a5.6,5.6,0,0,1,5.77-5.42Z" transform="translate(-153 -133.97)"/><polygon class="cls-4" points="133.92 214.09 177.79 214.09 177.71 202.79 133.92 202.79 133.92 214.09"/><rect class="cls-4" x="133.92" y="59.77" width="43.32" height="7.27"/><polygon class="cls-4" points="133.92 282.42 178.29 282.42 178.16 265.48 133.92 265.48 133.92 282.42"/><rect class="cls-5" x="134.71" y="146.38" width="42.14" height="12.56"/><path class="cls-6" d="M286.92,426.61c7.4,20.89,38.65,17.34,44.45,1.47l-.08-11.69H286.92Z" transform="translate(-153 -133.97)"/><polygon class="cls-6" points="133.92 265.48 178.16 265.48 178.1 256.79 133.92 256.79 133.92 265.48"/><polygon class="cls-6" points="133.92 249.54 178.05 249.54 177.96 236.79 133.92 236.79 133.92 249.54"/><polygon class="cls-6" points="133.92 220.47 177.84 220.47 177.79 214.09 133.92 214.09 133.92 220.47"/><polygon class="cls-6" points="133.92 202.79 177.71 202.79 177.62 191.19 133.92 191.19 133.92 202.79"/><path class="cls-6" d="M296.89,248.88l4.92,3.41a5.74,5.74,0,0,1,.11,9.51l-7.56,5.47a18.18,18.18,0,0,0-5.73,6.82h39.93a19.19,19.19,0,0,0-5.33-6.74l-7.74-6.21a4.79,4.79,0,0,1,0-7.61l6.44-5.06a21.92,21.92,0,0,0,6.1-7.43H289.74A23.63,23.63,0,0,0,296.89,248.88Z" transform="translate(-153 -133.97)"/><polygon class="cls-6" points="133.92 178.44 177.53 178.44 177.43 164.91 133.92 164.91 133.92 178.44"/><path class="cls-6" d="M286.92,181.76v10.85h43.32V180.18h0a26.37,26.37,0,0,0-8.87-8.49H297.29A30.72,30.72,0,0,0,286.92,181.76Z" transform="translate(-153 -133.97)"/><rect class="cls-6" x="133.92" y="67.04" width="43.32" height="12.02"/><polygon class="cls-6" points="133.92 231.82 177.92 231.82 177.87 225.44 133.92 225.44 133.92 231.82"/><path class="cls-6" d="M286.92,230.35a22.12,22.12,0,0,0,.17,2.7h43.08c0-.4.07-.8.07-1.2V221H286.92Z" transform="translate(-153 -133.97)"/><path class="cls-6" d="M299.76,170.36h19.15A22.58,22.58,0,0,0,299.76,170.36Z" transform="translate(-153 -133.97)"/><path class="cls-6" d="M299.73,170.36c-.82.39-1.63.84-2.44,1.33h23.76a26.08,26.08,0,0,0-2.43-1.33Z" transform="translate(-153 -133.97)"/><polygon class="cls-6" points="133.92 82.25 177.17 82.25 177.13 75.88 133.92 75.88 133.92 82.25"/><path class="cls-7" d="M390.9,270.06c0-34.49,24.82-55.58,59.32-55.58a55.16,55.16,0,0,1,36.32,13.08l-9.68,8.66a39.58,39.58,0,0,0-26.64-9.64c-25.22,0-41.76,16.51-41.76,43.15,0,27,16.54,43.81,41.76,43.81,12.11,0,21.39-4.25,29.67-11.77l9.68,8.33c-10.29,9.81-23.4,15.53-41,15.53C415.92,325.63,390.9,305,390.9,270.06Z" transform="translate(-153 -133.97)"/><path class="cls-7" d="M513.38,216.44H534l18.56,45.77L559,279.54h.8l6.26-17.33,18.77-45.77H605.4V323.67H589.25V270.06c0-10.46,2-28.77,2.83-37.92h-.61L584,253.06l-19,42.17H552.93l-18.56-42.17-7.67-20.92h-.4c1.21,9.15,2.82,27.46,2.82,37.92v53.61H513.38Z" transform="translate(-153 -133.97)"/><path class="cls-7" d="M633.45,309.78l10.09-9.49a62.72,62.72,0,0,0,38.74,13.25c18.16,0,28.65-7,28.65-16.84,0-11.44-10.29-14.71-23.61-19.29l-19.17-6.86C655,266.3,639.7,258.78,639.7,242.92c0-16.34,18.16-28.44,43.39-28.44,16.54,0,31.07,5.4,40.76,13.24L715,236.55c-8.68-6.21-18.77-10-32.49-10-15.34,0-25.63,5.88-25.63,15.53,0,10.29,12.31,14.05,23.61,17.65l18.57,6.7c16.34,5.23,29.26,12.75,29.26,28.6,0,17-17.76,30.57-46.82,30.57C662.1,325.63,645.35,319.42,633.45,309.78Z" transform="translate(-153 -133.97)"/><rect class="cls-8" x="277.05" y="255.93" width="41.61" height="13.32" rx="6.66"/><rect class="cls-9" x="338.46" y="255.93" width="41.61" height="13.32" rx="6.66"/><rect class="cls-10" x="338.46" y="278.62" width="41.61" height="13.32" rx="6.66"/><rect class="cls-8" x="277.05" y="278.62" width="41.61" height="13.32" rx="6.66"/><rect class="cls-10" x="215.63" y="278.62" width="41.61" height="13.32" rx="6.66"/><rect class="cls-10" x="399.87" y="278.62" width="41.61" height="13.32" rx="6.66"/><rect class="cls-9" x="277.05" y="233.23" width="41.61" height="13.32" rx="6.66"/><rect class="cls-9" x="277.05" y="210.53" width="41.61" height="13.32" rx="6.66"/><rect class="cls-9" x="277.05" y="188.6" width="41.61" height="13.32" rx="6.66"/><rect class="cls-9" x="215.63" y="255.93" width="41.61" height="13.32" rx="6.66"/><rect class="cls-8" x="215.63" y="233.23" width="41.61" height="13.32" rx="6.66"/><rect class="cls-10" x="215.63" y="210.53" width="41.61" height="13.32" rx="6.66"/><rect class="cls-10" x="215.63" y="187.84" width="41.61" height="13.32" rx="6.66"/><rect class="cls-10" x="215.63" y="164.76" width="41.61" height="13.32" rx="6.66"/><path class="cls-11" d="M383.51,259.4" transform="translate(-153 -133.97)"/><path class="cls-11" d="M378.55,408.71" transform="translate(-153 -133.97)"/></g></svg>